<svg width="48" height="49" viewBox="0 0 48 49" fill="none" xmlns="http://www.w3.org/2000/svg">
<path d="M28.68 36.2804L31.5 33.4017L40 42.0175L37.12 44.9167L28.68 36.2804ZM37 4.08333C38.8565 4.08333 40.637 4.83619 41.9498 6.1763C43.2625 7.5164 44 9.33397 44 11.2292C44 13.1244 43.2625 14.9419 41.9498 16.282C40.637 17.6221 38.8565 18.375 37 18.375C35.1435 18.375 33.363 17.6221 32.0503 16.282C30.7375 14.9419 30 13.1244 30 11.2292C30 9.33397 30.7375 7.5164 32.0503 6.1763C33.363 4.83619 35.1435 4.08333 37 4.08333ZM4.48002 14.5162L10.14 8.73833C10.5215 8.35553 11.0351 8.14103 11.57 8.14103C12.105 8.14103 12.6185 8.35553 13 8.73833L29.94 26.0721C30.72 26.8683 30.72 28.1546 29.94 28.9508L24.28 34.7083C24.0955 34.9022 23.8747 35.0563 23.6308 35.1615C23.3869 35.2668 23.1248 35.321 22.86 35.321C22.5952 35.321 22.3331 35.2668 22.0892 35.1615C21.8453 35.0563 21.6246 34.9022 21.44 34.7083L4.48002 17.4154C3.70002 16.5987 3.70002 15.3125 4.48002 14.5162Z" fill="black"/>
</svg>
