<svg width="35" height="39" viewBox="0 0 35 39" fill="none" xmlns="http://www.w3.org/2000/svg">
<path d="M27.7084 6.5H24.7917V4.875C24.7917 4.44402 24.6381 4.0307 24.3646 3.72595C24.0911 3.4212 23.7202 3.25 23.3334 3.25C22.9466 3.25 22.5757 3.4212 22.3022 3.72595C22.0287 4.0307 21.8751 4.44402 21.8751 4.875V6.5H13.1251V4.875C13.1251 4.44402 12.9714 4.0307 12.6979 3.72595C12.4245 3.4212 12.0535 3.25 11.6667 3.25C11.28 3.25 10.909 3.4212 10.6356 3.72595C10.3621 4.0307 10.2084 4.44402 10.2084 4.875V6.5H7.29175C6.13143 6.5 5.01863 7.01361 4.19816 7.92785C3.37768 8.84209 2.91675 10.0821 2.91675 11.375V30.875C2.91675 32.1679 3.37768 33.4079 4.19816 34.3221C5.01863 35.2364 6.13143 35.75 7.29175 35.75H27.7084C28.8687 35.75 29.9815 35.2364 30.802 34.3221C31.6225 33.4079 32.0834 32.1679 32.0834 30.875V11.375C32.0834 10.0821 31.6225 8.84209 30.802 7.92785C29.9815 7.01361 28.8687 6.5 27.7084 6.5ZM29.1667 30.875C29.1667 31.306 29.0131 31.7193 28.7396 32.024C28.4661 32.3288 28.0952 32.5 27.7084 32.5H7.29175C6.90497 32.5 6.53404 32.3288 6.26055 32.024C5.98706 31.7193 5.83341 31.306 5.83341 30.875V19.5H29.1667V30.875ZM29.1667 16.25H5.83341V11.375C5.83341 10.944 5.98706 10.5307 6.26055 10.226C6.53404 9.92121 6.90497 9.75 7.29175 9.75H10.2084V11.375C10.2084 11.806 10.3621 12.2193 10.6356 12.524C10.909 12.8288 11.28 13 11.6667 13C12.0535 13 12.4245 12.8288 12.6979 12.524C12.9714 12.2193 13.1251 11.806 13.1251 11.375V9.75H21.8751V11.375C21.8751 11.806 22.0287 12.2193 22.3022 12.524C22.5757 12.8288 22.9466 13 23.3334 13C23.7202 13 24.0911 12.8288 24.3646 12.524C24.6381 12.2193 24.7917 11.806 24.7917 11.375V9.75H27.7084C28.0952 9.75 28.4661 9.92121 28.7396 10.226C29.0131 10.5307 29.1667 10.944 29.1667 11.375V16.25Z" fill="black"/>
</svg>
