<?xml version="1.0" encoding="utf-8"?>
<!-- Generator: Adobe Illustrator 16.0.0, SVG Export Plug-In . SVG Version: 6.00 Build 0)  -->
<!DOCTYPE svg PUBLIC "-//W3C//DTD SVG 1.1//EN" "http://www.w3.org/Graphics/SVG/1.1/DTD/svg11.dtd">
<svg version="1.1" id="Layer_1" xmlns="http://www.w3.org/2000/svg" xmlns:xlink="http://www.w3.org/1999/xlink" x="0px" y="0px"
	 width="320" height="80" viewBox="0 0 50 11.333" enable-background="new 0 0 50 11.333" xml:space="preserve">
<g>
	<path fill="#DF2228" d="M6.614,5.767C6.714,5.67,6.75,5.499,6.75,5.358V2.904c0-0.173-0.023-0.301-0.137-0.413
		c-0.101-0.099-0.24-0.146-0.415-0.146H5.698v3.567h0.501C6.374,5.912,6.512,5.864,6.614,5.767"/>
	<g>
		<path fill="#DF2228" d="M17.856,2.72c-0.188-0.176-0.426-0.314-0.712-0.415s-0.623-0.151-1.013-0.151h-2.879l0.477,0.649v5.871
			l-0.477,0.65h2.879c0.39,0,0.727-0.053,1.013-0.156s0.523-0.245,0.712-0.424c0.188-0.18,0.328-0.385,0.418-0.617
			c0.091-0.233,0.137-0.478,0.137-0.735V4.058c0-0.258-0.046-0.501-0.137-0.73C18.184,3.098,18.044,2.896,17.856,2.72 M16.743,7.393
			c0,0.183-0.065,0.337-0.198,0.462c-0.13,0.126-0.31,0.188-0.536,0.188h-0.612V3.408h0.612c0.225,0,0.406,0.063,0.536,0.188
			c0.133,0.125,0.198,0.279,0.198,0.462V7.393z"/>
		<path fill="#DF2228" d="M23.163,6.177c0.131-0.062,0.253-0.146,0.368-0.245c0.115-0.099,0.379-0.384,0.377-0.94V3.69
			c0-0.151-0.015-0.314-0.042-0.49c-0.029-0.176-0.098-0.343-0.208-0.5c-0.11-0.157-0.276-0.287-0.5-0.391
			c-0.224-0.104-0.53-0.156-0.919-0.156h-2.944v7.171h1.663V6.838h0.981c0.201,0,0.415,0.101,0.415,0.384
			c-0.001,0.092,0,2.046,0,2.104h1.696V7.299C24.049,6.955,23.947,6.304,23.163,6.177 M22.22,4.918c0,0.377-0.136,0.584-0.518,0.6
			h-0.744V3.329h0.662c0.187,0,0.609,0.03,0.6,0.566V4.918z"/>
		<path fill="#DF2228" d="M24.824,3.796v3.876c-0.011,1.29,0.862,1.645,1.637,1.653h2.273V7.991h-1.94
			c-0.342,0-0.304-0.335-0.304-0.335V6.392h1.99V5.072h-1.99V3.838c0,0-0.024-0.363,0.306-0.365h1.938V2.154h-2.167
			C25.021,2.154,24.824,3.187,24.824,3.796"/>
		<path fill="#DF2228" d="M32.171,2.154h-2.589l0,0v7.171h1.664v-2.49h1.483v2.49h1.695V4.21
			C34.425,2.659,33.368,2.154,32.171,2.154 M32.729,5.516h-1.483V3.332c0,0,0.588,0,0.758,0c0.541,0,0.717,0.235,0.726,0.692V5.516z
			"/>
		<path fill="#DF2228" d="M40.66,2.032c-0.668,0.001-1.231,0.127-1.635,0.321c-0.132-0.088-0.287-0.159-0.467-0.212
			c-0.18-0.054-1.309-0.261-3.17,0.091v7.093h1.661v-5.78c0.755-0.09,0.954,0.013,1.028,0.056c0.275,0.16,0.278,0.491,0.278,0.625
			v5.099h1.46V4.058c0-0.114-0.009-0.236-0.028-0.368c0.075-0.032,0.145-0.059,0.289-0.09s0.479-0.108,0.749,0.028
			c0.129,0.064,0.285,0.2,0.284,0.562v5.136h1.665V4.077c0-0.541-0.033-1.117-0.474-1.521C42.012,2.289,41.621,2.029,40.66,2.032"/>
		<polygon fill="#DF2228" points="43.893,3.674 44.641,3.674 44.641,9.325 46.311,9.325 46.311,2.154 44.373,2.154 		"/>
		<polygon fill="#DF2228" points="47.563,2.154 47.082,3.674 47.83,3.674 47.83,9.325 49.5,9.325 49.5,2.154 		"/>
		<path fill="#DF2228" d="M7.106,8.975c1.923-1.272,2.837-1.935,3.25-2.352c1.157-1.172,1.115-2.006,1.098-3.589
			c0-0.062,0-0.539,0-0.539l-0.19-0.127c-0.029-0.019-0.544-0.362-1.151-0.588v0.917c0.209,0.095,0.396,0.198,0.524,0.274
			c0,0.019,0.001,0.042,0.001,0.073c0.012,1.073,0.027,1.778-0.278,2.461c-0.172,0.39-0.392,0.601-0.584,0.826
			C9.142,7.07,6.46,9.022,6.46,9.022V8.941c0,0,1.691-1.438,1.983-1.734C9.673,5.959,9.773,4.85,9.79,4.118c0,0,0-0.001,0-0.001
			V1.002c0,0-1.721-0.719-3.803-0.701C3.443,0.322,2.163,1.002,2.163,1.002v3.115c0.017,0.732,0.111,1.822,1.341,3.07
			c0.289,0.294,1.972,1.754,1.972,1.754v0.081c0,0-2.71-1.926-3.339-2.669C1.862,6.03,1.662,5.727,1.544,5.427
			C1.325,4.972,1.309,4.074,1.32,3.043c0-0.031,0-0.055,0.001-0.073c0.128-0.076,0.314-0.178,0.52-0.272V1.78
			C1.236,2.007,0.722,2.349,0.693,2.368L0.503,2.495c0,0,0,0.477,0,0.539C0.488,4.616,0.482,5.516,1.601,6.623
			C1.967,6.983,3.45,8.035,4.828,8.974c0.345,0.239,0.559,0.388,0.559,0.388C5.373,9.37,4.523,10.064,4.44,10.134
			c-0.284,0.238-0.366,0.379-0.371,0.534v0.387h3.808v-0.387c-0.012-0.182-0.085-0.296-0.371-0.533
			c-0.148-0.124-0.345-0.282-0.661-0.544l-1.826,0.845v-0.038L7.106,8.975z M3.983,6.902l0.45-0.483V1.882l-0.45-0.485h1.693
			c1.049,0,1.22,0.036,1.441,0.114C7.336,1.588,7.478,1.68,7.623,1.815c0.146,0.136,0.253,0.292,0.324,0.469
			c0.07,0.176,0.105,0.365,0.105,0.563v2.564c0,0.199-0.036,0.387-0.105,0.566c-0.071,0.18-0.179,0.339-0.324,0.477
			C7.478,6.592,7.292,6.693,7.074,6.78C6.653,6.95,5.746,6.904,5.565,6.904C5.544,6.904,3.983,6.902,3.983,6.902"/>
	</g>
</g>
</svg>
